# xmcd
#
# Track frame offsets: 
#        150
#        10938
#        17259
#        28603
#        35432
#        46831
#        54773
#        63276
#        69269
#        78178
#        86649
#        97400
#        109243
#        116180
#        127408
#        138589
#        145921
#        154419
#
# Disc length: 2203 seconds
#
# Revision: 1
# Processed by: cddbd v1.5.2PL0 Copyright (c) Steve Scherf et al.
# Submitted via: ExactAudioCopy v0.99pb5
#
DISCID=f5089912
DTITLE=Reno and Smiley - Bluegrass 1963
DYEAR=2010
DGENRE=Country
TTITLE0=Love, O' Love Please Come Home
TTITLE1=Down Yonder
TTITLE2=In the Pines (Ralph and Carter Stanley)
TTITLE3=Home Sweet Home (Don Reno and Ralph Stanley)
TTITLE4=Over in the Gloryland (with Ralph and Carter Stanley)
TTITLE5=Bare Foot Nellie
TTITLE6=Nine Pound Hammer (with Ralph and Carter Stanley)
TTITLE7=John Henry
TTITLE8=Wouldn't Change You If I Could
TTITLE9=Panhandle Country
TTITLE10=Whispering Hope
TTITLE11=You Comb Her Hair
TTITLE12=Arkansas Traveler
TTITLE13=I'm Using My Bible for a Road Map
TTITLE14=I'm the Talk of the Town
TTITLE15=Fishers' Hornpipe
TTITLE16=I Know You're Married
TTITLE17=Ballad of Jed Clampett
EXTD=
EXTT0=
EXTT1=
EXTT2=
EXTT3=
EXTT4=
EXTT5=
EXTT6=
EXTT7=
EXTT8=
EXTT9=
EXTT10=
EXTT11=
EXTT12=
EXTT13=
EXTT14=
EXTT15=
EXTT16=
EXTT17=
PLAYORDER=
